<svg xmlns="http://www.w3.org/2000/svg" version="1.1" xmlns:xlink="http://www.w3.org/1999/xlink" xmlns:svgjs="http://svgjs.dev/svgjs" width="100%" height="100%" viewBox="0 0 1000 600"><rect width="1000" height="600" x="0" y="0" fill="#0000"/><g><rect width="333.3333333333333" height="333.3333333333333" y="224.4134705110515" fill="#ff0000" transform="matrix(0.6182265130022273,0,0,0.6182265130022272,0,58.223880848088214)" x="202.19126892089844"/><path d="M398.46533140865756 334.39618333730493L398.46533140865756 334.39618333730493L398.88432579910443 330.9544437014913Q391.13292957583724 330.32595211582094 380.8974951806349 329.9967422376127Q370.6620607854326 329.66753235940445 360.6361235854537 329.458035164181Q350.61018638547483 329.2485379689575 343.068287357431 329.458035164181L343.068287357431 329.458035164181Q342.2003704057911 329.458035164181 341.7813760153442 329.9967422376127Q341.36238162489735 330.53544931104443 341.36238162489735 331.16394089671473L341.36238162489735 331.16394089671473L341.36238162489735 450.99633656452187Q341.36238162489735 451.6248281501922 341.7813760153442 452.1635352236239Q342.2003704057911 452.70224229705565 343.068287357431 452.70224229705565L343.068287357431 452.70224229705565Q350.81968358069827 452.9117394922791 360.75583626843854 452.8219549800404Q370.6620607854326 452.70224229705565 380.68799798541147 452.2832479066087Q390.68400701464407 451.8343253454156 398.46533140865756 451.2058337597453L398.46533140865756 451.2058337597453L398.0164088474645 447.76409412393167Q390.47450981942063 448.392585709602 380.5682853024266 448.8415082707951Q370.6620607854326 449.26050266124196 360.75583626843854 449.38021534422677Q350.81968358069827 449.4699998564654 343.068287357431 449.26050266124196L343.068287357431 449.26050266124196Q342.4397957717607 449.26050266124196 343.60699443086276 450.4576294910902Q344.804121260711 451.6248281501922 344.804121260711 450.99633656452187L344.804121260711 450.99633656452187L344.804121260711 331.16394089671473Q344.804121260711 330.53544931104443 343.60699443086276 331.7026479701464Q342.4397957717607 332.89977479999465 343.068287357431 332.89977479999465L343.068287357431 332.89977479999465Q350.61018638547483 332.6902776047712 360.6361235854537 332.89977479999465Q370.6620607854326 333.1092719952181 380.77778249765004 333.4384818734263Q390.9234323806138 333.76769175163463 398.46533140865756 334.39618333730493ZM343.068287357431 390.6611443401714L392.8388353083709 390.6611443401714L392.8388353083709 387.1894765336116L343.068287357431 387.1894765336116L343.068287357431 390.6611443401714ZM344.14570150429444 452.2832479066087L360.3069137072455 438.6958583878314L358.15208541351865 436.12203570365773L341.99087321056766 449.6794970516888Q341.99087321056766 449.6794970516888 342.1105858935524 449.5897125394502Q342.2003704057911 449.4699998564654 342.2003704057911 449.4699998564654L342.2003704057911 449.4699998564654L320.8915128344927 462.8478921800193L322.5974185670264 465.8407092546399L343.936204309071 452.49274510183216Q344.14570150429444 452.49274510183216 344.14570150429444 452.37303241884734Q344.14570150429444 452.2832479066087 344.14570150429444 452.2832479066087L344.14570150429444 452.2832479066087ZM343.936204309071 329.66753235940445L322.5974185670264 316.3195682065967L320.8915128344927 319.3123852812173L342.2003704057911 332.6902776047712Q342.2003704057911 332.6902776047712 342.1105858935524 332.5705649217864Q341.99087321056766 332.4807804095478 341.99087321056766 332.4807804095478L341.99087321056766 332.4807804095478L358.15208541351865 346.03824175757893L360.3069137072455 343.4644190734052L344.14570150429444 329.8770295546279Q344.14570150429444 329.8770295546279 344.14570150429444 329.78724504238926Q344.14570150429444 329.66753235940445 343.936204309071 329.66753235940445L343.936204309071 329.66753235940445ZM399.9617399459678 333.76769175163463L413.30970409877557 318.89339089077043L410.73588141460186 316.7385625970436L397.3879172617942 331.6128634579078Q397.1484918958245 331.8223606531312 397.0587073835859 332.5705649217864Q396.93899470060103 333.3187691904415 397.1484918958245 333.76769175163463L397.1484918958245 333.76769175163463L410.52638421937843 352.5027266387593L413.5491294647452 350.3478983450325L400.1712371411913 331.6128634579078Q399.7522427507444 331.16394089671473 399.6325300677596 332.6902776047712Q399.5427455555209 334.1866861420815 399.9617399459678 333.76769175163463L399.9617399459678 333.76769175163463ZM399.5427455555209 450.5474140033288L417.20036629578226 429.6575508224773L414.62654361160855 427.5027225287505L396.93899470060103 448.392585709602Q396.52000031015416 448.8415082707951 396.52000031015416 449.4699998564654Q396.52000031015416 450.12841961288194 396.93899470060103 450.5474140033288L396.93899470060103 450.5474140033288L410.316887024155 465.421714864193L412.8907097083287 463.26688657046617L399.5427455555209 448.392585709602Q399.09382299432787 447.9735913191551 399.21353567731273 449.4699998564654Q399.3033201895513 450.99633656452187 399.5427455555209 450.5474140033288L399.5427455555209 450.5474140033288ZM394.155674821204 390.0027245837549L407.50363897401166 372.34510384349363L404.92981628983796 370.1902755497668L391.5519239662841 387.84789629002813Q391.13292957583724 388.266890680475 391.13292957583724 388.9253104368915Q391.13292957583724 389.58373019330804 391.5519239662841 390.0027245837549L391.5519239662841 390.0027245837549L404.92981628983796 407.45084812879276L407.50363897401166 405.296019835066L394.155674821204 387.84789629002813Q393.9162494552343 387.4289018995812 393.9162494552343 388.9253104368915Q393.9162494552343 390.4217189742018 394.155674821204 390.0027245837549L394.155674821204 390.0027245837549ZM344.14570150429444 390.21222177897835L359.43899675560544 377.2832520166175L357.2841684618787 374.70942933244385L341.99087321056766 387.63839909480464Q341.36238162489735 388.05739348525157 341.36238162489735 388.9253104368915Q341.36238162489735 389.7932273885315 341.99087321056766 390.21222177897835L341.99087321056766 390.21222177897835L357.2841684618787 403.14119154133914L359.43899675560544 400.5673688571655L344.14570150429444 387.63839909480464Q343.5172099186241 387.1894765336116 343.5172099186241 388.9253104368915Q343.5172099186241 390.6611443401714 344.14570150429444 390.21222177897835L344.14570150429444 390.21222177897835ZM321.7295016153864 466.0801346206095L321.7295016153864 466.0801346206095L411.6037983662418 466.0801346206095Q412.23228995191215 466.0801346206095 412.68121251310527 465.63121205941644Q413.10020690355213 465.2122176689696 413.30970409877557 464.553797912553L413.30970409877557 464.553797912553L417.61936068622913 428.78963387083735Q417.85878605219875 427.71221972397393 416.87115641757396 427.05379996755744Q415.91345495369546 426.4253083818871 414.836040806832 427.29322533352706L414.836040806832 427.29322533352706Q411.15487580504873 430.28604240814764 405.3488106802848 432.231373506651Q399.5427455555209 434.1767046051543 388.76860408688697 435.0446215567943Q377.99446261825295 435.91253850843424 359.229499560382 435.6731131424646L359.229499560382 435.6731131424646L360.965333463662 437.4089470457446Q360.75583626843854 430.9444621645642 360.5164109024689 422.2054363066721Q360.3069137072455 413.4963386195263 360.09741651202205 401.8542801992523L360.09741651202205 401.8542801992523L358.3615826087421 403.59011410253225Q375.39071176333306 403.59011410253225 384.33923481644854 404.0091084929791Q393.28775786956396 404.428102883426 397.80691165224107 405.296019835066Q402.32606543491806 406.1639367867059 405.3488106802848 407.8997706899858L405.3488106802848 407.8997706899858Q406.4262248271483 408.31876508043274 407.17442909580336 407.780058007001Q407.92263336445853 407.2413509335693 407.92263336445853 406.37343398192934L407.92263336445853 406.37343398192934L407.92263336445853 371.2676896966302Q407.92263336445853 370.1902755497668 407.17442909580336 369.74135298857374Q406.4262248271483 369.32235859812687 405.3488106802848 369.74135298857374L405.3488106802848 369.74135298857374Q402.32606543491806 371.47718689185365 397.80691165224107 372.4348883557322Q393.28775786956396 373.422517990357 384.21952213346367 373.72179969781905Q375.1812145681096 374.0510095760273 358.3615826087421 374.26050677125073L358.3615826087421 374.26050677125073L360.09741651202205 375.9963406745307Q360.3069137072455 365.8806189623132 360.5164109024689 358.21900725128455Q360.75583626843854 350.5573955402559 360.965333463662 344.751330415492L360.965333463662 344.751330415492L359.229499560382 346.487164318772Q377.54554005705984 346.03824175757893 387.57147725703874 347.02587139220367Q397.59741445701763 347.9835728560823 402.65527531312637 349.4799813933925Q407.7131361692351 351.00631810144904 411.15487580504873 352.9516491999524L411.15487580504873 352.9516491999524Q412.23228995191215 353.37064359039925 413.01042239131345 352.8319365169676Q413.7586266599686 352.2932294435359 413.7586266599686 351.4253124918959L413.7586266599686 351.4253124918959L413.7586266599686 317.815976743907Q413.7586266599686 317.15755698749047 413.2199195865369 316.61884991405884Q412.68121251310527 316.0801428406271 412.02279275668866 316.0801428406271L412.02279275668866 316.0801428406271L321.7295016153864 316.0801428406271Q320.8915128344927 316.0801428406271 320.352805761061 316.85827528002847Q319.81409868762927 317.6064795486836 320.2330930780762 318.683893695547L320.2330930780762 318.683893695547Q321.9689269813561 321.70663894091376 323.0463411282195 326.0162955283673Q324.1237552750829 330.32595211582094 324.6624623485146 337.86785114386475Q325.2011694219463 345.40975017190857 325.50045112940836 357.68030017785287Q325.8296610076166 369.9508501837972 325.8296610076166 389.1348076321149L325.8296610076166 389.1348076321149Q325.8296610076166 409.3961792272961 325.50045112940836 422.44486167264176Q325.2011694219463 435.4636159472412 324.6624623485146 443.45443753647805Q324.1237552750829 451.41533095496874 323.0463411282195 455.84470022540717Q321.9689269813561 460.2441413250994 320.2330930780762 463.4763837656896L320.2330930780762 463.4763837656896Q319.81409868762927 464.3443007173296 320.352805761061 465.2122176689696Q320.8915128344927 466.0801346206095 321.7295016153864 466.0801346206095ZM411.6037983662418 462.6084668140497L321.7295016153864 462.6084668140497L323.25583832344296 465.2122176689696Q324.9617440559766 461.9799752283794 326.03915820284004 457.34110876271745Q327.11657234970346 452.70224229705565 327.8947047891048 444.62163619558004Q328.64290905775994 436.5410300941046 328.9721189359682 423.1930659412969Q329.27140064343024 409.815173617743 329.27140064343024 389.1348076321149L329.27140064343024 389.1348076321149Q329.27140064343024 369.5318557933503 328.9721189359682 356.9320959091977Q328.64290905775994 344.33233602504515 327.8947047891048 336.6707243140165Q327.11657234970346 329.0091126029879 326.03915820284004 324.6096715032957Q324.9617440559766 320.18030223285723 323.25583832344296 316.94805979226703L323.25583832344296 316.94805979226703L321.7295016153864 319.5518106471869L412.02279275668866 319.5518106471869L410.316887024155 317.815976743907L410.316887024155 351.4253124918959L412.8907097083287 349.9289039545856Q409.23947287729163 347.9835728560823 403.94218665521316 346.3674516357871Q398.674828603881 344.751330415492 388.3196815256939 343.67391626862866Q377.99446261825295 342.59650212176524 359.229499560382 343.01549651221217L359.229499560382 343.01549651221217Q358.6010079747117 343.01549651221217 358.06230090128 343.4644190734052Q357.52359382784834 343.8834134638521 357.52359382784834 344.751330415492L357.52359382784834 344.751330415492Q357.2841684618787 350.5573955402559 357.0746712666553 358.21900725128455Q356.8651740714318 365.8806189623132 356.65567687620836 375.9963406745307L356.65567687620836 375.9963406745307Q356.65567687620836 376.6547604309472 357.19438394964004 377.19346750437893Q357.7330910230718 377.7321745778106 358.3615826087421 377.7321745778106L358.3615826087421 377.7321745778106Q371.73947493229593 377.7321745778106 380.0295782289949 377.40296469960236Q388.3196815256939 377.07375482139406 393.37754238180264 376.41533506497757Q398.46533140865756 375.78684347930727 401.45814848327814 374.9189265276673Q404.4808937286449 374.0510095760273 407.0846445835648 372.7640982339405L407.0846445835648 372.7640982339405L404.4808937286449 371.2676896966302L404.4808937286449 406.37343398192934L407.0846445835648 404.87702544461905Q404.4808937286449 403.59011410253225 401.45814848327814 402.72219715089227Q398.46533140865756 401.8542801992523 393.37754238180264 401.3155731258206Q388.3196815256939 400.7768660523889 379.9098655460101 400.4476561741806Q371.5299777370725 400.1184462959724 358.3615826087421 400.1184462959724L358.3615826087421 400.1184462959724Q357.7330910230718 400.1184462959724 357.19438394964004 400.65715336940406Q356.65567687620836 401.1958604428358 356.65567687620836 401.8542801992523L356.65567687620836 401.8542801992523Q356.8651740714318 413.4963386195263 357.0746712666553 422.2054363066721Q357.2841684618787 430.9444621645642 357.52359382784834 437.4089470457446L357.52359382784834 437.4089470457446Q357.52359382784834 438.2768639973845 358.06230090128 438.6958583878314Q358.6010079747117 439.1447809490245 359.229499560382 439.1447809490245L359.229499560382 439.1447809490245Q378.8324513991467 439.3542781442479 389.935802745989 438.36664850962313Q401.03915409283127 437.4089470457446 407.0846445835648 435.25411875201775Q413.10020690355213 433.09929045829097 416.9908691005588 429.86704801770077L416.9908691005588 429.86704801770077L414.1776210504155 428.3706394803905L409.8679644629619 464.13480352210615L411.6037983662418 462.6084668140497Z " fill="#000000" transform="matrix(0.6182265130022273,0,0,0.6182265130022272,0,58.223880848088214)"/><path d="M744.88592143002 334.2185329986007L723.9865747724439 316.60436792265034L721.4702654758795 319.6099595824355L742.3696121334557 337.22412465838596Q742.8588944966765 337.46876583999637 743.4879718208176 337.6085608009166Q744.1170491449586 337.7483557618368 744.6063315081796 337.46876583999637L744.6063315081796 337.46876583999637L773.82347834051 319.8546007640459L771.7964514071665 316.35972674103994L742.6142533150661 333.9738918169903Q742.0900222116152 334.2185329986007 743.732613002428 334.3233792192909Q745.3752037932409 334.4631741802112 744.88592143002 334.2185329986007L744.88592143002 334.2185329986007ZM652.7610421835809 333.9738918169903L621.8314070799775 316.35972674103994L619.804380146634 319.8546007640459L650.7689639904675 337.46876583999637Q651.2582463536883 337.7483557618368 651.8873236778294 337.6085608009166Q652.5164010019705 337.46876583999637 653.0406321054213 337.22412465838596L653.0406321054213 337.22412465838596L675.6874157745006 319.6099595824355L673.1711064779361 316.60436792265034L650.524322808857 334.2185329986007Q650.2447328870165 334.4631741802112 651.7824774571392 334.3233792192909Q653.2852732870317 334.2185329986007 652.7610421835809 333.9738918169903L652.7610421835809 333.9738918169903ZM653.7745556502526 335.2320464652725L653.7745556502526 335.2320464652725L649.7554505237956 336.2106111917142Q652.0271186387496 344.2837701848581 656.8150960502678 357.9836763550418Q661.5681247215562 371.7185312654555 670.1305660779209 394.0857250126941L670.1305660779209 394.0857250126941Q670.1305660779209 394.0857250126941 670.1305660779209 394.0857250126941Q670.1305660779209 394.0857250126941 670.1305660779209 394.0857250126941L670.1305660779209 394.0857250126941Q674.1496712043778 404.9198344840129 678.8328023952059 417.99066333005544Q683.480984845804 431.09644091632805 687.2554487906505 442.1751915692572L687.2554487906505 442.1751915692572Q687.7447311538713 442.6644739324781 688.2689622573222 443.04891007500873Q688.7582446205431 443.4333462175394 689.2475269837639 443.4333462175394L689.2475269837639 443.4333462175394L705.8831273332726 443.4333462175394Q707.1412819815548 443.4333462175394 707.875205526386 442.1751915692572L707.875205526386 442.1751915692572Q711.6496694712325 431.09644091632805 716.4376468827509 417.99066333005544Q721.2256242942691 404.9198344840129 725.2447294207261 394.0857250126941L725.2447294207261 394.0857250126941Q725.2447294207261 394.0857250126941 725.2447294207261 394.0857250126941Q725.2447294207261 394.0857250126941 725.2447294207261 394.0857250126941L725.2447294207261 394.0857250126941Q734.0518119587013 371.1943001620046 738.6999944092993 357.5992402125111Q743.3481768598973 344.0391290032477 745.6198449748513 336.2106111917142L745.6198449748513 336.2106111917142L741.6007398483944 335.2320464652725Q739.3290717334404 343.02561553657597 734.6808892828424 356.4808805251492Q730.0327068322443 369.93614551372247 721.71490665749 392.5829291828016L721.71490665749 392.5829291828016Q721.71490665749 392.5829291828016 721.71490665749 392.5829291828016Q721.71490665749 392.5829291828016 721.71490665749 392.5829291828016L721.71490665749 392.5829291828016Q718.9539561793151 399.6425747092738 715.6687745976895 408.0652211047183Q712.418541756294 416.48786750016285 709.3780013562787 424.9105138956074Q706.3724096964935 433.368109031282 703.8561003999291 440.63744699913457L703.8561003999291 440.63744699913457Q703.6114592183187 441.4063192841959 704.974460087291 440.39280581752416Q706.3724096964935 439.3792923508524 705.8831273332726 439.3792923508524L705.8831273332726 439.3792923508524L689.2475269837639 439.3792923508524Q688.7582446205431 439.3792923508524 690.1561942297454 440.39280581752416Q691.5191950987178 441.4063192841959 691.2745539171074 440.63744699913457L691.2745539171074 440.63744699913457Q687.5000899722609 429.5936450864355 682.7121125607425 416.48786750016285Q677.9241351492244 403.4170386541203 673.660388841157 392.5829291828016L673.660388841157 392.5829291828016Q673.660388841157 392.5829291828016 673.660388841157 392.5829291828016Q673.660388841157 392.5829291828016 673.660388841157 392.5829291828016L673.660388841157 392.5829291828016Q665.3425886664027 370.18078669533287 660.6944062158045 356.7255217067596Q656.0462237652066 343.2702567181864 653.7745556502526 335.2320464652725ZM687.5000899722609 440.39280581752416L676.1766981377214 463.03958948660323L679.7065209009575 465.0666164199468L691.029912735497 442.41983275086767Q691.029912735497 442.1751915692572 691.029912735497 442.1751915692572Q691.029912735497 442.1751915692572 691.029912735497 442.1751915692572L691.029912735497 442.1751915692572L700.326277636693 417.99066333005544Q700.8505087401439 416.73250868177325 698.57884062519 416.6276624610831Q696.3071725102361 416.48786750016285 696.5518136918465 417.74602214844504L696.5518136918465 417.74602214844504L703.8561003999291 441.8956016474167Q703.8561003999291 442.1751915692572 703.9958953608493 442.1751915692572Q704.1007415815395 442.1751915692572 704.1007415815395 442.1751915692572L704.1007415815395 442.1751915692572L713.9213375861865 464.82197523833634L717.4511603494226 463.28423066821364L707.6305643447756 440.63744699913457Q707.6305643447756 440.63744699913457 707.7703593056958 440.7772419600548Q707.875205526386 440.917036920975 707.875205526386 440.917036920975L707.875205526386 440.917036920975L700.5709188183034 416.73250868177325Q700.0816364550826 415.22971285188066 698.6836868458802 415.22971285188066Q697.3206859769078 415.22971285188066 696.7964548734569 416.48786750016285L696.7964548734569 416.48786750016285L687.5000899722609 440.63744699913457Q687.2554487906505 440.63744699913457 687.3602950113407 440.53260077844436Q687.5000899722609 440.39280581752416 687.5000899722609 440.39280581752416L687.5000899722609 440.39280581752416ZM691.7638362803282 392.5829291828016L691.7638362803282 392.5829291828016Q684.4944983124757 372.4524548102868 680.5802394067089 359.7660621067749Q676.6659805009422 347.04472066303293 675.3029796319698 339.4957927733399Q673.9050300227674 331.94686488364687 674.4292611262183 327.2986824330488Q674.9185434894391 322.65049998245075 676.4213393193318 318.87603603760425L676.4213393193318 318.87603603760425Q676.6659805009422 317.8625225709325 676.1766981377214 316.988804065181Q675.6874157745006 316.0801368191994 674.4292611262183 316.0801368191994L674.4292611262183 316.0801368191994L620.8178936133056 316.0801368191994Q619.5597389650236 316.0801368191994 619.0704566018027 317.23344524679146Q618.5462254983518 318.3518049341534 619.3150977834131 319.3653184008251L619.3150977834131 319.3653184008251Q621.8314070799775 322.65049998245075 624.4525625972319 327.1588874721285Q627.1086668547166 331.7022237020364 630.4986946570325 339.4957927733399Q633.8887224593483 347.28936184464334 639.2009309743174 360.39513943091595Q644.4781907490566 373.46596827695856 652.2717598203601 394.0857250126941L652.2717598203601 394.0857250126941Q659.5760465284427 413.48227584037767 664.0844340181204 425.92402736227916Q668.6277702480282 438.40072762441065 670.8994383629822 445.67006559226326Q673.1711064779361 452.97435230034586 674.2894661652981 457.1332523877231Q675.4078258526599 461.29215247510024 675.932056956111 464.2977441348854L675.932056956111 464.2977441348854Q676.1766981377214 465.0666164199468 676.6659805009422 465.5558987831676Q677.1902116043931 466.0801298866185 677.9241351492244 466.0801298866185L677.9241351492244 466.0801298866185L715.6687745976895 466.0801298866185Q716.4376468827509 466.0801298866185 717.0667242068919 465.5558987831676Q717.695801531033 465.0666164199468 717.695801531033 464.053102953275L717.695801531033 464.053102953275Q717.9404427126434 461.0475112934898 718.9539561793151 456.88861120611267Q719.967469645987 452.72971111873545 722.343983981631 445.42542441065285Q724.7554470575052 438.12113770257025 729.4036295081032 425.81918114158896Q734.0518119587013 413.48227584037767 741.3560986667839 394.0857250126941L741.3560986667839 394.0857250126941Q749.3943089196978 373.46596827695856 754.5667224737467 360.39513943091595Q759.7041872875656 347.28936184464334 763.2340100508017 339.4957927733399Q766.7638328140378 331.7022237020364 769.2801421106021 327.1588874721285Q771.7964514071665 322.65049998245075 774.3127607037309 319.3653184008251L774.3127607037309 319.3653184008251Q775.0816329887921 318.3518049341534 774.5574018853413 317.23344524679146Q774.0681195221205 316.0801368191994 772.8099648738382 316.0801368191994L772.8099648738382 316.0801368191994L722.7284201241617 316.0801368191994Q721.71490665749 316.0801368191994 721.0858293333489 316.988804065181Q720.4567520092078 317.8625225709325 720.7013931908182 318.87603603760425L720.7013931908182 318.87603603760425Q722.2391377609408 322.65049998245075 722.7284201241617 327.2986824330488Q723.2177024873826 331.94686488364687 721.8547016184102 339.4957927733399Q720.4567520092078 347.04472066303293 716.5774418436711 359.7660621067749Q712.6631829379044 372.4524548102868 705.3588962298218 392.5829291828016L705.3588962298218 392.5829291828016L696.5518136918465 416.48786750016285L700.5709188183034 416.48786750016285L691.7638362803282 392.5829291828016ZM687.7447311538713 394.0857250126941L687.7447311538713 394.0857250126941L687.7447311538713 394.0857250126941L696.5518136918465 417.99066333005544Q697.0760447952974 419.2488179783376 698.57884062519 419.2488179783376Q700.0816364550826 419.2488179783376 700.5709188183034 417.99066333005544L700.5709188183034 417.99066333005544L709.3780013562787 394.0857250126941Q716.9269292459717 373.22132709534816 720.8411881517385 360.0107032883853Q724.7554470575052 346.8000794814225 726.0136017057874 338.86671544919875Q727.2717563540696 330.9333514169751 726.7475252506187 326.1453740054568Q726.2582428873978 321.39234533416857 724.7554470575052 317.3382914674816L724.7554470575052 317.3382914674816L722.7284201241617 320.13419068588644L772.8099648738382 320.13419068588644L771.3071690439456 316.84900910426074Q768.7908597473813 320.13419068588644 766.1347554898966 324.6425781755642Q763.4786512324122 329.1859144054721 759.9837772094061 337.22412465838596Q756.45395444617 345.29728365152994 751.1766946714308 358.5079074584927Q745.8644861564617 371.7185312654555 737.8262759035478 392.5829291828016L737.8262759035478 392.5829291828016Q730.2773480138547 412.2241211920955 725.6291655632567 424.80566767491723Q720.9809831126587 437.3872141577389 718.4646738160943 444.79634708651173Q715.9483645195301 452.24042875551464 714.9348510528582 456.50417506358195Q713.9213375861865 460.7679213716493 713.6766964045761 464.053102953275L713.6766964045761 464.053102953275L715.6687745976895 462.0260760199315L677.9241351492244 462.0260760199315L679.9511620825679 463.80846177166455Q679.461879719347 460.5232801900389 678.308571291755 456.25953388197155Q677.1902116043931 451.96083883367413 674.7787485285189 444.5517059049013Q672.4022341928749 437.1425729761285 667.8588979629669 424.665872713997Q663.3505104732892 412.2241211920955 655.8015825835961 392.5829291828016L655.8015825835961 392.5829291828016Q648.0080135122927 371.7185312654555 642.6958049973234 358.5079074584927Q637.4185452225844 345.29728365152994 633.7838762386581 337.22412465838596Q630.1142585145017 329.1859144054721 627.4931029972472 324.6425781755642Q624.8369987397626 320.13419068588644 622.3206894431983 316.84900910426074L622.3206894431983 316.84900910426074L620.8178936133056 320.13419068588644L674.4292611262183 320.13419068588644L672.4022341928749 317.3382914674816Q670.8994383629822 321.39234533416857 670.3752072595313 326.1453740054568Q669.8859248963104 330.9333514169751 671.1440795445926 338.86671544919875Q672.4022341928749 346.8000794814225 676.3164930986416 360.0107032883853Q680.1958032641783 373.22132709534816 687.7447311538713 394.0857250126941ZM808.2829362073495 390.59085098968814L854.8346581937899 390.59085098968814L854.8346581937899 386.5367971230011L808.2829362073495 386.5367971230011L808.2829362073495 390.59085098968814ZM861.3700726168112 336.7348422951651L861.3700726168112 336.7348422951651L861.8943037202621 332.7157371687082Q853.8211447271182 331.94686488364687 843.7559075408608 331.56242874111615Q833.6906703546033 331.1779925985855 824.254510492487 331.07314637789534Q814.8183506303708 330.9333514169751 808.2829362073495 331.457582520426L808.2829362073495 331.457582520426Q807.2694227406778 331.457582520426 806.7801403774569 332.08665984456707Q806.255909274006 332.7157371687082 806.255909274006 333.4496607135394L806.255909274006 333.4496607135394L806.255909274006 388.56382405634463Q806.255909274006 388.56382405634463 806.255909274006 388.56382405634463Q806.255909274006 388.56382405634463 806.255909274006 388.56382405634463L806.255909274006 388.56382405634463L806.255909274006 448.71060599227854Q806.255909274006 449.44452953710976 806.7801403774569 450.0736068612509Q807.2694227406778 450.70268418539194 808.2829362073495 450.70268418539194L808.2829362073495 450.70268418539194Q814.8183506303708 450.9822741072324 824.1496642717968 450.9822741072324Q833.4460291729929 450.9822741072324 843.26662517764 450.5978379647018Q853.0872211822868 450.2134018221711 861.3700726168112 449.44452953710976L861.3700726168112 449.44452953710976L860.8807902535904 445.42542441065285Q852.8076312604464 446.1942966957142 843.1268302167197 446.57873283824483Q833.4460291729929 446.92822024054544 824.1496642717968 446.92822024054544Q814.8183506303708 446.92822024054544 808.2829362073495 446.683579058935L808.2829362073495 446.683579058935Q807.5140639222882 446.683579058935 808.9120135314906 448.0815286681374Q810.309963140693 449.44452953710976 810.309963140693 448.71060599227854L810.309963140693 448.71060599227854L810.309963140693 388.56382405634463Q810.309963140693 388.56382405634463 810.309963140693 388.56382405634463Q810.309963140693 388.56382405634463 810.309963140693 388.56382405634463L810.309963140693 388.56382405634463L810.309963140693 333.4496607135394Q810.309963140693 332.7157371687082 808.9120135314906 334.0787380376805Q807.5140639222882 335.47668764688297 808.2829362073495 335.47668764688297L808.2829362073495 335.47668764688297Q814.8183506303708 334.95245654343205 824.254510492487 335.09225150435225Q833.6906703546033 335.2320464652725 843.6510613201706 335.5815338675731Q853.5765035455076 335.9659700101038 861.3700726168112 336.7348422951651ZM863.1524583685443 335.9659700101038L878.7395965111511 319.3653184008251L875.734004851366 316.84900910426074L860.111917968529 333.4496607135394Q859.8672767869186 333.69430189514986 859.7274818259983 334.60296914113144Q859.6226356053082 335.47668764688297 860.111917968529 335.9659700101038L860.111917968529 335.9659700101038L875.734004851366 356.86531666767985L878.7395965111511 354.34900737111553L863.1524583685443 333.4496607135394Q862.8728684467038 332.9603783503186 862.7680222260136 334.70781536182164Q862.6282272650933 336.4902011135547 863.1524583685443 335.9659700101038L863.1524583685443 335.9659700101038ZM862.6282272650933 448.71060599227854L883.2829327410591 425.05030885652764L880.2423923410438 422.5339995599633L859.6226356053082 446.1942966957142Q859.0984045018573 446.683579058935 859.0984045018573 447.4524513439963Q859.0984045018573 448.18637488882763 859.6226356053082 448.71060599227854L859.6226356053082 448.71060599227854L875.209773747915 465.3112576015572L878.2503141479303 462.79494830499283L862.6282272650933 446.1942966957142Q862.1389449018725 445.67006559226326 862.1389449018725 447.4524513439963Q862.1389449018725 449.19988835549935 862.6282272650933 448.71060599227854L862.6282272650933 448.71060599227854ZM856.3374540236825 389.8219787046268L871.9595409065195 369.93614551372247L868.9190005065042 367.4198362171581L853.3318623638972 387.30566940806244Q852.8076312604464 387.7949517712833 852.8076312604464 388.56382405634463Q852.8076312604464 389.33269634140595 853.3318623638972 389.8219787046268L853.3318623638972 389.8219787046268L868.9190005065042 409.46317071392076L871.9595409065195 406.9468614173564L856.3374540236825 387.30566940806244Q856.092812842072 386.81638704484163 856.092812842072 388.56382405634463Q856.092812842072 390.3112610678476 856.3374540236825 389.8219787046268L856.3374540236825 389.8219787046268ZM809.2964496740212 331.7022237020364L785.1468701750496 316.35972674103994L783.119843241706 319.8546007640459L807.2694227406778 335.2320464652725Q807.2694227406778 335.2320464652725 807.1645765199876 335.09225150435225Q807.0247815590674 334.95245654343205 807.0247815590674 334.95245654343205L807.0247815590674 334.95245654343205L824.8835878166282 349.56102995959725L827.3998971131925 346.55543829981207L809.5410908556316 331.94686488364687Q809.5410908556316 331.94686488364687 809.5410908556316 331.80706992272655Q809.5410908556316 331.7022237020364 809.2964496740212 331.7022237020364L809.2964496740212 331.7022237020364ZM807.2694227406778 446.92822024054544L783.119843241706 462.305665941772L785.1468701750496 465.800539964778L809.2964496740212 450.4580430037815Q809.5410908556316 450.4580430037815 809.5410908556316 450.35319678309133Q809.5410908556316 450.2134018221711 809.5410908556316 450.2134018221711L809.5410908556316 450.2134018221711L827.6445382948029 435.6048284060059L825.1282289982386 432.5992367462207L807.0247815590674 447.2078101623859Q807.0247815590674 447.2078101623859 807.1645765199876 447.0680152014657Q807.2694227406778 446.92822024054544 807.2694227406778 446.92822024054544L807.2694227406778 446.92822024054544ZM809.5410908556316 390.0666198862372L826.6659735683612 375.7376363919125L824.1496642717968 372.69709599189724L807.0247815590674 387.06102822645204Q806.255909274006 387.55031058967285 806.255909274006 388.56382405634463Q806.255909274006 389.57733752301635 807.0247815590674 390.0666198862372L807.0247815590674 390.0666198862372L824.1496642717968 404.430552120792L826.6659735683612 401.3900117207768L809.5410908556316 387.06102822645204Q808.7722185705703 386.5367971230011 808.7722185705703 388.56382405634463Q808.7722185705703 390.59085098968814 809.5410908556316 390.0666198862372L809.5410908556316 390.0666198862372ZM784.1333567083777 466.0801298866185L784.1333567083777 466.0801298866185L876.7125695778077 466.0801298866185Q877.481441862869 466.0801298866185 877.9707242260898 465.5558987831676Q878.4949553295407 465.0666164199468 878.7395965111511 464.2977441348854L878.7395965111511 464.2977441348854L883.7722151042799 424.0367953898559Q884.0168562858903 422.7786407415737 882.8984965985284 422.04471719674245Q881.7451881709364 421.27584491168113 880.4870335226542 422.28935837835286L880.4870335226542 422.28935837835286Q876.4679283961973 425.2949500381381 870.9460274398477 427.7064131140122Q865.3891777432681 430.0829274496563 855.0792993754003 431.20128713701826Q844.7694210075325 432.35459556461024 826.3863836465207 432.10995438299983L826.3863836465207 432.10995438299983L828.4134105798643 434.1020325761133Q828.1687693982539 428.0559005163128 827.9241282166433 420.5069726266198Q827.6445382948029 412.95804473692675 827.3998971131925 402.8928075506694L827.3998971131925 402.8928075506694L825.4078189200791 404.9198344840129Q841.2395982442964 405.1644756656233 849.662244639741 405.6887067690742Q858.1198397754156 406.17798913229507 862.2437911225627 407.1915025989668Q866.4026912099398 408.2050160656385 869.4432316099551 409.95245307714157L869.4432316099551 409.95245307714157Q870.7013862582373 410.4417354403624 871.5751047639887 409.8126581162213Q872.4488232697404 409.18358079208025 872.4488232697404 408.2050160656385L872.4488232697404 408.2050160656385L872.4488232697404 368.6779908654403Q872.4488232697404 367.4198362171581 871.5751047639887 366.9305538539373Q870.7013862582373 366.40632275048637 869.4432316099551 366.9305538539373L869.4432316099551 366.9305538539373Q866.4026912099398 368.6779908654403 862.1389449018725 369.691504332112Q857.8402498535751 370.7050177987838 849.5573984190507 371.33409512292485Q841.2395982442964 371.963172447066 825.4078189200791 372.2078136286764L825.4078189200791 372.2078136286764L827.3998971131925 374.2348405620199Q827.6445382948029 366.1616815688759 827.7843332557231 359.6262671458546Q827.9241282166433 353.09085272283335 828.1687693982539 348.05823412970466L828.1687693982539 348.05823412970466L826.1417424649103 350.0503123228181Q844.0005487224712 349.8056711412077 853.5765035455076 350.9589795687997Q863.1524583685443 352.0773392561616 868.0452820007526 353.8247762676646Q872.9381056329612 355.60716201939766 876.2232872145869 357.5992402125111L876.2232872145869 357.5992402125111Q877.481441862869 358.12347131596204 878.3551603686205 357.49439399182097Q879.228878874372 356.86531666767985 879.228878874372 355.8518032010081L879.228878874372 355.8518032010081L879.228878874372 318.10716375254293Q879.228878874372 317.3382914674816 878.599801550231 316.70921414334055Q877.9707242260898 316.0801368191994 877.2368006812586 316.0801368191994L877.2368006812586 316.0801368191994L784.1333567083777 316.0801368191994Q783.119843241706 316.0801368191994 782.4907659175649 316.988804065181Q781.8616885934239 317.8625225709325 782.3509709566447 319.1206772192147L782.3509709566447 319.1206772192147Q784.1333567083777 322.3709100606103 785.39151135666 326.6696051089077Q786.6496660049421 330.9333514169751 787.3835895497734 338.2376381250577Q788.1524618348348 345.54192483314034 788.5368979773654 357.7390351734314Q788.9213341198961 369.93614551372247 788.9213341198961 388.80846523795503L788.9213341198961 388.80846523795503Q788.9213341198961 409.18358079208025 788.5368979773654 422.1495634174326Q788.1524618348348 435.115546042785 787.3835895497734 443.04891007500873Q786.6496660049421 450.9822741072324 785.39151135666 455.38581537622Q784.1333567083777 459.78935664520765 782.3509709566447 463.03958948660323L782.3509709566447 463.03958948660323Q781.8616885934239 464.053102953275 782.4907659175649 465.0666164199468Q783.119843241706 466.0801298866185 784.1333567083777 466.0801298866185ZM876.7125695778077 462.0260760199315L784.1333567083777 462.0260760199315L785.8807937198808 465.0666164199468Q787.6631794716138 461.5367936567107 788.9213341198961 456.99345742680276Q790.1794887681782 452.48506993712505 791.0532072739297 444.41191094398107Q791.9269257796813 436.3737006910672 792.4162081429021 423.02328192318413Q792.940439246353 409.70781189553117 792.940439246353 388.80846523795503L792.940439246353 388.80846523795503Q792.940439246353 369.4468631505016 792.4162081429021 356.97016288837006Q791.9269257796813 344.52841136646856 791.0532072739297 336.9794834767755Q790.1794887681782 329.4305555870825 788.9213341198961 324.8872193571747Q787.6631794716138 320.37883186749684 785.8807937198808 317.09365028587115L785.8807937198808 317.09365028587115L784.1333567083777 320.13419068588644L877.2368006812586 320.13419068588644L875.209773747915 318.10716375254293L875.209773747915 355.8518032010081L878.2503141479303 354.1043661895051Q874.7204913846942 352.0773392561616 869.5480778306453 350.19010728373837Q864.4106130168265 348.30287531131506 854.4502220512592 347.04472066303293Q844.5247798259221 345.78656601475075 826.1417424649103 346.03120719636115L826.1417424649103 346.03120719636115Q825.4078189200791 346.03120719636115 824.778741595938 346.55543829981207Q824.1496642717968 347.04472066303293 824.1496642717968 348.05823412970466L824.1496642717968 348.05823412970466Q823.8700743499564 353.09085272283335 823.7652281292662 359.6262671458546Q823.625433168346 366.1616815688759 823.3807919867356 374.2348405620199L823.3807919867356 374.2348405620199Q823.3807919867356 374.96876410685115 824.0098693108766 375.5978414309922Q824.6389466350178 376.22691875513334 825.4078189200791 376.22691875513334L825.4078189200791 376.22691875513334Q842.0084705293577 375.9822775735229 850.6757581064127 375.21340528846156Q859.3779944236978 374.4794817436303 863.7815356926853 373.3261733160383Q868.185076961673 372.2078136286764 871.4353098030685 370.4603766171734L871.4353098030685 370.4603766171734L868.4297181432834 368.6779908654403L868.4297181432834 408.2050160656385L871.4353098030685 406.4226303139055Q868.185076961673 404.6751933024025 863.7815356926853 403.52188487481044Q859.3779944236978 402.4035251874485 850.6757581064127 401.77444786330744Q842.0084705293577 401.1453705391663 825.4078189200791 400.9007293575559L825.4078189200791 400.9007293575559Q824.6389466350178 400.9007293575559 824.0098693108766 401.52980668169704Q823.3807919867356 402.1588840058381 823.3807919867356 402.8928075506694L823.3807919867356 402.8928075506694Q823.625433168346 412.95804473692675 823.8700743499564 420.5069726266198Q824.1496642717968 428.0559005163128 824.3943054534072 434.1020325761133L824.3943054534072 434.1020325761133Q824.3943054534072 435.115546042785 825.0233827775484 435.6048284060059Q825.6524601016895 436.1290595094568 826.3863836465207 436.1290595094568L826.3863836465207 436.1290595094568Q845.5382932925938 436.3737006910672 856.3374540236825 435.115546042785Q867.1715634950012 433.8573913945028 872.9381056329612 431.20128713701826Q878.7395965111511 428.58013161976373 883.0033428192185 425.2949500381381L883.0033428192185 425.2949500381381L879.753109977823 423.54751302663504L874.7204913846942 463.80846177166455L876.7125695778077 462.0260760199315ZM924.0331638493094 333.4496607135394L924.0331638493094 448.4659648106681L928.0522689757663 448.4659648106681L928.0522689757663 333.4496607135394Q928.0522689757663 331.94686488364687 925.7806008608125 332.7157371687082Q923.5438814860886 333.4496607135394 924.5224462125302 334.70781536182164L924.5224462125302 334.70781536182164L1012.1039892290614 450.2134018221711Q1012.8728615141229 451.22691528884286 1014.2358623830952 450.8424791463122Q1015.6338119922976 450.4580430037815 1015.6338119922976 448.95524717388895L1015.6338119922976 448.95524717388895L1015.6338119922976 333.69430189514986L1011.6147068658406 333.69430189514986L1011.6147068658406 448.95524717388895Q1011.6147068658406 450.4580430037815 1013.8514262405645 449.58432449803Q1016.1230943555186 448.71060599227854 1015.1095808888467 447.69709252560676L1015.1095808888467 447.69709252560676L927.5629866125455 332.1915060652573Q926.7941143274842 330.9333514169751 925.4311134585118 331.457582520426Q924.0331638493094 331.94686488364687 924.0331638493094 333.4496607135394L924.0331638493094 333.4496607135394ZM924.8020361343707 450.2134018221711L947.6934609850603 465.800539964778L950.2097702816246 462.305665941772L927.3183454309351 446.683579058935Q926.7941143274842 446.4389378773246 926.0601907826529 446.4389378773246Q925.2913184975916 446.4389378773246 924.8020361343707 446.683579058935L924.8020361343707 446.683579058935L902.1552524652916 462.305665941772L904.671561761856 465.800539964778L927.3183454309351 450.2134018221711Q927.8076277941559 449.72411945895027 926.1650370033431 449.72411945895027Q924.5224462125302 449.72411945895027 924.8020361343707 450.2134018221711L924.8020361343707 450.2134018221711ZM1014.8649397072363 331.94686488364687L992.2181560381572 316.35972674103994L989.7018467415928 319.8546007640459L1012.348630410672 335.47668764688297Q1012.8728615141229 335.72132882849337 1013.6067850589541 335.72132882849337Q1014.3756573440155 335.72132882849337 1014.8649397072363 335.47668764688297L1014.8649397072363 335.47668764688297L1037.7563645579257 319.8546007640459L1035.2400552613615 316.35972674103994L1012.348630410672 331.94686488364687Q1012.1039892290614 332.1915060652573 1013.7465800198744 332.1915060652573Q1015.3891708106871 332.1915060652573 1014.8649397072363 331.94686488364687L1014.8649397072363 331.94686488364687ZM927.0387555090946 331.7022237020364L904.3919718400155 316.35972674103994L902.399893646902 319.8546007640459L925.0466773159812 335.2320464652725Q925.535959679202 335.47668764688297 926.4096781849535 335.33689268596265Q927.3183454309351 335.2320464652725 927.8076277941559 334.4631741802112L927.8076277941559 334.4631741802112L937.103992695352 319.1206772192147L933.6091186723459 317.09365028587115L924.2778050309198 332.4361472468677Q924.0331638493094 333.205019531929 925.9203958217327 332.7157371687082Q927.8076277941559 332.1915060652573 927.0387555090946 331.7022237020364L927.0387555090946 331.7022237020364ZM1012.348630410672 450.4580430037815L1032.7237459647972 465.5558987831676L1035.2400552613615 462.5503071233824L1014.8649397072363 447.4524513439963Q1014.1310161624051 446.92822024054544 1013.3621438773437 447.0680152014657Q1012.5932715922823 447.2078101623859 1012.1039892290614 447.69709252560676L1012.1039892290614 447.69709252560676L1000.5359562129115 462.79494830499283L1003.5415478726968 465.3112576015572L1015.1095808888467 450.2134018221711Q1015.6338119922976 449.44452953710976 1013.7465800198744 449.72411945895027Q1011.859348047451 449.9687606405607 1012.348630410672 450.4580430037815L1012.348630410672 450.4580430037815ZM944.1636382218242 384.30007774827726L928.0522689757663 333.205019531929L924.0331638493094 334.2185329986007L940.1445330953673 385.27864247471894L944.1636382218242 384.30007774827726ZM1015.6338119922976 448.4659648106681L999.7670839278503 398.8737024242124L995.7479788013933 399.8872158908842L1011.6147068658406 449.44452953710976L1015.6338119922976 448.4659648106681ZM1036.008927546423 463.56382059005415L1036.008927546423 463.56382059005415Q1034.995414079751 458.7758431785359 1034.1216955739997 453.3587884428766Q1033.247977068248 447.94173370721717 1032.7237459647972 439.0298049485518Q1032.2344636015762 430.0829274496563 1031.989822419966 415.1248666311905Q1031.7451812383554 400.1318570724946 1031.7451812383554 376.22691875513334L1031.7451812383554 376.22691875513334Q1031.7451812383554 360.6397806125264 1032.2344636015762 350.6793896469592Q1032.7237459647972 340.753947421622 1033.6324132107789 334.84761032274184Q1034.5061317165303 328.9412732238617 1035.624491403892 325.41145046062553Q1036.7777998314841 321.88162769738943 1038.2805956613768 319.1206772192147L1038.2805956613768 319.1206772192147Q1038.7698780245976 317.8625225709325 1038.2805956613768 316.988804065181Q1037.7563645579257 316.0801368191994 1036.4982099096437 316.0801368191994L1036.4982099096437 316.0801368191994L990.9600013898751 316.0801368191994Q989.9464879232032 316.0801368191994 989.3174105990622 316.988804065181Q988.6883332749211 317.8625225709325 989.212564378372 319.1206772192147L989.212564378372 319.1206772192147Q990.7153602082647 321.88162769738943 991.8337198956265 325.41145046062553Q992.9870283232185 328.9412732238617 993.8607468289699 334.84761032274184Q994.7344653347216 340.753947421622 995.2586964381724 350.6793896469592Q995.7479788013933 360.6397806125264 995.7479788013933 376.22691875513334L995.7479788013933 376.22691875513334L995.7479788013933 399.3979335276633L999.2778015646294 398.13977887938114L936.8593515137416 316.84900910426074Q936.6147103321312 316.0801368191994 935.356555683849 316.0801368191994L935.356555683849 316.0801368191994L903.4134071135738 316.0801368191994Q902.399893646902 316.0801368191994 901.770816322761 316.988804065181Q901.1417389986199 317.8625225709325 901.6310213618407 319.1206772192147L901.6310213618407 319.1206772192147Q903.1338171917333 321.88162769738943 904.2871256193253 325.41145046062553Q905.4054853066873 328.9412732238617 906.2792038124387 334.84761032274184Q907.1878710584203 340.753947421622 907.6771534216412 350.6793896469592Q908.166435784862 360.6397806125264 908.166435784862 376.22691875513334L908.166435784862 376.22691875513334Q908.166435784862 399.8872158908842 907.8169483825613 415.1248666311905Q907.4325122400307 430.32756863126673 906.8034349158896 439.65888227269284Q906.1743575917485 448.95524717388895 904.9162029434665 454.12766072793784Q903.6580482951842 459.26512554175673 901.6310213618407 463.03958948660323L901.6310213618407 463.03958948660323Q901.1417389986199 464.053102953275 901.770816322761 465.0666164199468Q902.399893646902 466.0801298866185 903.4134071135738 466.0801298866185L903.4134071135738 466.0801298866185L948.9516156333425 466.0801298866185Q950.2097702816246 466.0801298866185 950.6990526448456 465.0666164199468Q951.2232837482964 464.053102953275 950.6990526448456 463.03958948660323L950.6990526448456 463.03958948660323Q948.9516156333425 459.50976672336714 947.6934609850603 454.6169430911587Q946.435306336778 449.72411945895027 945.6664340517168 441.4063192841959Q944.9325105068855 433.0885191094415 944.5480743643548 419.3886129392579Q944.1636382218242 405.6887067690742 944.1636382218242 384.78936011149807L944.1636382218242 384.78936011149807L940.6338154585881 386.04751475978026L1000.5359562129115 465.3112576015572Q1001.0252385761324 466.0801298866185 1002.0387520428042 466.0801298866185L1002.0387520428042 466.0801298866185L1033.9819006130792 466.0801298866185Q1034.995414079751 466.0801298866185 1035.624491403892 465.3112576015572Q1036.2535687280333 464.5423853164959 1036.008927546423 463.56382059005415ZM1031.989822419966 464.5423853164959L1031.989822419966 464.5423853164959L1033.9819006130792 462.0260760199315L1002.0387520428042 462.0260760199315L1003.5415478726968 462.79494830499283L943.6743558586033 383.53120546321594Q942.9054835735419 382.27305081493375 941.5075339643397 382.7623331781546Q940.1445330953673 383.28656428160554 940.1445330953673 384.78936011149807L940.1445330953673 384.78936011149807Q940.1445330953673 406.17798913229507 940.6338154585881 420.1574852243192Q941.1580465620389 434.1020325761133 942.0317650677905 442.6644739324781Q942.9054835735419 451.22691528884286 944.1636382218242 456.25953388197155Q945.4217928701064 461.29215247510024 947.1692298816093 465.0666164199468L947.1692298816093 465.0666164199468L948.9516156333425 462.0260760199315L903.4134071135738 462.0260760199315L905.1608441250769 465.0666164199468Q907.1878710584203 461.29215247510024 908.4460257067025 455.87509773944083Q909.7041803549846 450.4580430037815 910.5778988607362 441.0218831416652Q911.4516173664877 431.5857232795489 911.8360535090184 415.99858513694204Q912.220489651549 400.376498254105 912.220489651549 376.22691875513334L912.220489651549 376.22691875513334Q912.220489651549 360.39513943091595 911.6962585480981 350.0503123228181Q911.2069761848772 339.7404339549503 910.1934627182054 333.5894556744597Q909.1799492515338 327.403528653739 907.9217946032516 323.76885966981274Q906.6636399549694 320.13419068588644 905.1608441250769 317.09365028587115L905.1608441250769 317.09365028587115L903.4134071135738 320.13419068588644L935.356555683849 320.13419068588644L933.8537598539563 319.3653184008251L996.2372611646142 400.6560881759455Q997.0061334496754 401.6346529023872 998.4040830588779 401.2851655000866Q999.7670839278503 400.9007293575559 999.7670839278503 399.3979335276633L999.7670839278503 399.3979335276633L999.7670839278503 376.22691875513334Q999.7670839278503 360.39513943091595 999.2778015646294 350.0503123228181Q998.7535704611785 339.7404339549503 997.7750057347367 333.5894556744597Q996.761492268065 327.403528653739 995.5033376197829 323.76885966981274Q994.2451829715006 320.13419068588644 992.7423871416081 317.09365028587115L992.7423871416081 317.09365028587115L990.9600013898751 320.13419068588644L1036.4982099096437 320.13419068588644L1034.7507728981407 317.09365028587115Q1033.247977068248 320.13419068588644 1031.989822419966 323.76885966981274Q1030.7316677716838 327.403528653739 1029.718154305012 333.5894556744597Q1028.70464083834 339.7404339549503 1028.2153584751193 350.0503123228181Q1027.6911273716685 360.39513943091595 1027.6911273716685 376.22691875513334L1027.6911273716685 376.22691875513334Q1027.6911273716685 400.376498254105 1027.9707172935089 415.4743540334911Q1028.2153584751193 430.5722098128772 1028.70464083834 439.65888227269284Q1029.228871941791 448.71060599227854 1030.1025904475425 454.23250694862804Q1030.9763089532942 459.78935664520765 1031.989822419966 464.5423853164959ZM1157.2810561447322 336.7348422951651L1157.2810561447322 336.7348422951651L1157.805287248183 332.7157371687082Q1150.25635935849 331.94686488364687 1139.4222498871713 331.56242874111615Q1128.6230891560829 331.1779925985855 1113.5252333766966 331.1779925985855L1113.5252333766966 331.1779925985855Q1113.5252333766966 331.1779925985855 1113.5252333766966 331.1779925985855Q1113.5252333766966 331.1779925985855 1113.5252333766966 331.1779925985855L1113.5252333766966 331.1779925985855Q1098.672018778921 331.1779925985855 1087.8379093076023 331.56242874111615Q1077.0387485765136 331.94686488364687 1069.4898206868206 332.7157371687082L1069.4898206868206 332.7157371687082L1069.9791030500414 336.7348422951651Q1077.5280309397344 335.9659700101038 1088.0825504892127 335.5815338675731Q1098.672018778921 335.2320464652725 1113.5252333766966 335.2320464652725L1113.5252333766966 335.2320464652725Q1113.5252333766966 335.2320464652725 1113.5252333766966 335.2320464652725Q1113.5252333766966 335.2320464652725 1113.5252333766966 335.2320464652725L1113.5252333766966 335.2320464652725Q1128.6230891560829 335.2320464652725 1139.177608705561 335.5815338675731Q1149.7321282550392 335.9659700101038 1157.2810561447322 336.7348422951651ZM1115.5173115698103 448.4659648106681L1115.5173115698103 333.205019531929L1111.4982064433532 333.205019531929L1111.4982064433532 448.4659648106681L1115.5173115698103 448.4659648106681ZM1112.511719910025 450.2134018221711L1136.6612994089965 465.800539964778L1138.6883263423401 462.305665941772L1114.5037981031383 446.683579058935Q1114.2591569215278 446.4389378773246 1113.6300795973868 446.4389378773246Q1113.0010022732458 446.4389378773246 1112.511719910025 446.683579058935L1112.511719910025 446.683579058935L1088.6067815926635 462.305665941772L1090.5988597857772 465.800539964778L1114.5037981031383 450.2134018221711Q1115.0280292065893 449.72411945895027 1113.5252333766966 449.72411945895027Q1111.987488806574 449.72411945895027 1112.511719910025 450.2134018221711L1112.511719910025 450.2134018221711ZM1159.0634418964653 335.9659700101038L1174.6505800390723 319.3653184008251L1171.644988379287 316.84900910426074L1156.0229014964502 333.4496607135394Q1155.7782603148396 333.69430189514986 1155.6734140941494 334.60296914113144Q1155.5336191332292 335.47668764688297 1156.0229014964502 335.9659700101038L1156.0229014964502 335.9659700101038L1171.644988379287 357.1099578492903L1174.6505800390723 354.59364855272594L1159.0634418964653 333.4496607135394Q1158.818800714855 332.9603783503186 1158.6790057539347 334.70781536182164Q1158.5392107930145 336.4902011135547 1159.0634418964653 335.9659700101038L1159.0634418964653 335.9659700101038ZM1068.2316660385386 333.4496607135394L1052.6095791557013 354.59364855272594L1055.6501195557166 357.1099578492903L1071.2372576983237 335.9659700101038Q1071.7265400615445 335.47668764688297 1071.7265400615445 334.60296914113144Q1071.7265400615445 333.69430189514986 1071.2372576983237 333.4496607135394L1071.2372576983237 333.4496607135394L1055.6501195557166 316.84900910426074L1052.6095791557013 319.3653184008251L1068.2316660385386 335.9659700101038Q1068.7209484017594 336.4902011135547 1068.7209484017594 334.70781536182164Q1068.7209484017594 332.9603783503186 1068.2316660385386 333.4496607135394L1068.2316660385386 333.4496607135394ZM1112.2670787284146 331.7022237020364L1094.3733237306237 347.04472066303293L1096.889633027188 350.0503123228181L1114.7833880249789 334.70781536182164Q1115.2726703881997 334.2185329986007 1113.5252333766966 334.2185329986007Q1111.7428476249636 334.2185329986007 1112.2670787284146 334.70781536182164L1112.2670787284146 334.70781536182164L1130.370526167586 350.0503123228181L1132.8868354641502 347.04472066303293L1114.7833880249789 331.7022237020364Q1114.2591569215278 331.1779925985855 1113.5252333766966 331.1779925985855Q1112.7563610916354 331.1779925985855 1112.2670787284146 331.7022237020364L1112.2670787284146 331.7022237020364ZM1089.6202950593354 466.0801298866185L1089.6202950593354 466.0801298866185L1137.6748128756685 466.0801298866185Q1138.9329675239505 466.0801298866185 1139.4222498871713 465.0666164199468Q1139.9464809906221 464.053102953275 1139.4222498871713 463.03958948660323L1139.4222498871713 463.03958948660323Q1137.6748128756685 459.78935664520765 1136.4166582273863 455.38581537622Q1135.158503579104 450.9822741072324 1134.3896312940428 443.04891007500873Q1133.6557077492116 435.115546042785 1133.2712716066808 422.1495634174326Q1132.8868354641502 409.18358079208025 1132.8868354641502 388.80846523795503L1132.8868354641502 388.80846523795503Q1132.8868354641502 375.492995210302 1133.1314766457606 365.53260424473484Q1133.376117827371 355.60716201939766 1133.6557077492116 348.5475164929255L1133.6557077492116 348.5475164929255L1131.628680815868 350.57454342626903Q1150.0117181768796 351.3084669711003 1158.5392107930145 353.09085272283335Q1167.1016521493793 354.83828973433634 1172.1342707425079 357.5992402125111L1172.1342707425079 357.5992402125111Q1173.3924253907903 358.12347131596204 1174.2661438965415 357.49439399182097Q1175.1748111425231 356.86531666767985 1175.1748111425231 355.8518032010081L1175.1748111425231 355.8518032010081L1175.1748111425231 318.10716375254293Q1175.1748111425231 317.3382914674816 1174.545733818382 316.70921414334055Q1173.9166564942411 316.0801368191994 1173.1477842091797 316.0801368191994L1173.1477842091797 316.0801368191994L1054.1123749855942 316.0801368191994Q1053.3784514407628 316.0801368191994 1052.7493741166218 316.70921414334055Q1052.1202967924805 317.3382914674816 1052.1202967924805 318.10716375254293L1052.1202967924805 318.10716375254293L1052.1202967924805 355.8518032010081Q1052.1202967924805 356.86531666767985 1053.1338102591524 357.49439399182097Q1054.1123749855942 358.12347131596204 1055.1258884522658 357.5992402125111L1055.1258884522658 357.5992402125111Q1060.1585070453943 354.83828973433634 1068.7209484017594 352.9510577619131Q1077.283389758124 351.06382578948984 1095.6314783789057 350.57454342626903L1095.6314783789057 350.57454342626903L1093.6394001857923 348.5475164929255Q1094.1286825490133 355.60716201939766 1094.2684775099333 365.53260424473484Q1094.3733237306237 375.492995210302 1094.3733237306237 388.80846523795503L1094.3733237306237 388.80846523795503Q1094.3733237306237 409.18358079208025 1094.023836328323 422.1495634174326Q1093.6394001857923 435.115546042785 1092.8705279007308 443.04891007500873Q1092.1366043558999 450.9822741072324 1090.8784497076176 455.38581537622Q1089.6202950593354 459.78935664520765 1087.8379093076023 463.03958948660323L1087.8379093076023 463.03958948660323Q1087.3486269443815 464.053102953275 1087.9777042685225 465.0666164199468Q1088.6067815926635 466.0801298866185 1089.6202950593354 466.0801298866185ZM1137.6748128756685 462.0260760199315L1089.6202950593354 462.0260760199315L1091.3677320708384 465.0666164199468Q1093.1151690823415 461.5367936567107 1094.3733237306237 456.99345742680276Q1095.6314783789057 452.48506993712505 1096.5401456248874 444.41191094398107Q1097.413864130639 436.3737006910672 1097.9031464938598 423.02328192318413Q1098.4273775973106 409.70781189553117 1098.4273775973106 388.80846523795503L1098.4273775973106 388.80846523795503Q1098.4273775973106 375.492995210302 1098.2875826363904 365.53260424473484Q1098.1477876754702 355.60716201939766 1097.6585053122492 348.5475164929255L1097.6585053122492 348.5475164929255Q1097.6585053122492 347.53400302625374 1097.0294279881082 347.04472066303293Q1096.4003506639672 346.55543829981207 1095.6314783789057 346.55543829981207L1095.6314783789057 346.55543829981207Q1076.5145174730628 347.04472066303293 1067.4627937534772 349.1765938170666Q1058.4110700338915 351.3084669711003 1053.1338102591524 354.1043661895051L1053.1338102591524 354.1043661895051L1056.1394019189374 355.8518032010081L1056.1394019189374 318.10716375254293L1054.1123749855942 320.13419068588644L1173.1477842091797 320.13419068588644L1171.1207572758362 318.10716375254293L1171.1207572758362 355.8518032010081L1174.1612976758515 354.1043661895051Q1168.6044479792718 351.3084669711003 1159.6925192206063 349.31638877798684Q1150.7456417217109 347.28936184464334 1131.628680815868 346.55543829981207L1131.628680815868 346.55543829981207Q1130.8598085308067 346.55543829981207 1130.2307312066655 347.04472066303293Q1129.6016538825245 347.53400302625374 1129.6016538825245 348.5475164929255L1129.6016538825245 348.5475164929255Q1129.357012700914 355.60716201939766 1129.1123715193037 365.53260424473484Q1128.8677303376933 375.492995210302 1128.8677303376933 388.80846523795503L1128.8677303376933 388.80846523795503Q1128.8677303376933 409.70781189553117 1129.357012700914 423.02328192318413Q1129.8812438043649 436.3737006910672 1130.7549623101165 444.41191094398107Q1131.628680815868 452.48506993712505 1132.8868354641502 456.99345742680276Q1134.1449901124324 461.5367936567107 1135.8924271239352 465.0666164199468L1135.8924271239352 465.0666164199468L1137.6748128756685 462.0260760199315ZM1214.422246420881 447.94173370721717L1214.422246420881 333.69430189514986L1210.403141294424 333.69430189514986L1210.403141294424 447.94173370721717Q1210.403141294424 448.71060599227854 1210.892423657645 449.33968331641955Q1211.3817060208657 449.9687606405607 1212.3952194875374 449.9687606405607L1212.3952194875374 449.9687606405607Q1230.778256848549 450.2134018221711 1243.9888806555118 449.9687606405607Q1257.1995044624746 449.72411945895027 1264.993073533778 448.95524717388895L1264.993073533778 448.95524717388895L1264.5037911705572 444.936142047432Q1256.6752733590238 445.67006559226326 1243.7442394739014 445.94965551410377Q1230.778256848549 446.1942966957142 1212.3952194875374 445.94965551410377L1212.3952194875374 445.94965551410377Q1211.6612959427061 445.94965551410377 1213.0242968116786 447.3126563830761Q1214.422246420881 448.71060599227854 1214.422246420881 447.94173370721717L1214.422246420881 447.94173370721717ZM1213.4087329542094 331.94686488364687L1189.2591534552375 316.35972674103994L1187.2321265218939 319.8546007640459L1211.3817060208657 335.47668764688297Q1211.9059371243166 335.72132882849337 1212.5350144484578 335.72132882849337Q1213.1640917725988 335.72132882849337 1213.4087329542094 335.47668764688297L1213.4087329542094 335.47668764688297L1237.3136712715705 319.8546007640459L1235.2866443382268 316.35972674103994L1211.3817060208657 331.94686488364687Q1210.892423657645 332.1915060652573 1212.3952194875374 332.1915060652573Q1213.89801531743 332.1915060652573 1213.4087329542094 331.94686488364687L1213.4087329542094 331.94686488364687ZM1263.2456365222752 448.18637488882763L1278.832774664882 465.3112576015572L1281.8383663246673 462.79494830499283L1266.2512281820605 445.67006559226326Q1265.7619458188396 445.18078322904245 1265.8667920395296 446.92822024054544Q1266.00658700045 448.71060599227854 1266.2512281820605 448.18637488882763L1266.2512281820605 448.18637488882763L1286.8709849177962 423.79215420824545L1283.8653932580105 421.27584491168113L1263.2456365222752 445.67006559226326Q1262.7214054188244 446.1942966957142 1262.7214054188244 446.92822024054544Q1262.7214054188244 447.69709252560676 1263.2456365222752 448.18637488882763L1263.2456365222752 448.18637488882763ZM1211.3817060208657 446.1942966957142L1187.2321265218939 462.305665941772L1189.2591534552375 465.800539964778L1213.4087329542094 449.72411945895027Q1213.6533741358198 449.44452953710976 1213.6533741358198 449.44452953710976Q1213.6533741358198 449.44452953710976 1213.6533741358198 449.44452953710976L1213.6533741358198 449.44452953710976L1231.5121803933803 433.8573913945028L1228.9958710968158 430.85179973471764L1211.1370648392553 446.4389378773246Q1210.892423657645 446.4389378773246 1211.1370648392553 446.2991429164044Q1211.3817060208657 446.1942966957142 1211.3817060208657 446.1942966957142L1211.3817060208657 446.1942966957142ZM1188.245639988566 466.0801298866185L1188.245639988566 466.0801298866185L1280.3355704947749 466.0801298866185Q1281.104442779836 466.0801298866185 1281.5937251430569 465.5558987831676Q1282.1179562465077 465.0666164199468 1282.362597428118 464.2977441348854L1282.362597428118 464.2977441348854L1287.3952160212466 422.7786407415737Q1287.6398572028575 421.52048609329154 1286.5214975154954 420.78656254846027Q1285.3681890879034 420.01769026339895 1284.1100344396214 421.0312037300707L1284.1100344396214 421.0312037300707Q1280.3355704947749 424.0367953898559 1274.4292333958947 426.16866854388957Q1268.522896297014 428.33549043815333 1258.2130179291462 429.314055164595Q1247.8681908210488 430.32756863126673 1230.2540257450983 430.32756863126673L1230.2540257450983 430.32756863126673L1232.2810526784415 432.35459556461024Q1232.036411496831 424.56102649330677 1231.7917703152207 413.9715582035985Q1231.5121803933803 403.4170386541203 1231.5121803933803 388.80846523795503L1231.5121803933803 388.80846523795503Q1231.5121803933803 369.93614551372247 1231.896616535911 357.7390351734314Q1232.2810526784415 345.54192483314034 1233.0499249635031 338.2376381250577Q1233.7838485083344 330.9333514169751 1235.0420031566164 326.6696051089077Q1236.3001578048988 322.3709100606103 1238.0825435566317 319.1206772192147L1238.0825435566317 319.1206772192147Q1238.5718259198525 317.8625225709325 1238.0825435566317 316.988804065181Q1237.5583124531809 316.0801368191994 1236.3001578048988 316.0801368191994L1236.3001578048988 316.0801368191994L1188.245639988566 316.0801368191994Q1187.2321265218939 316.0801368191994 1186.6030491977529 316.988804065181Q1185.9739718736118 317.8625225709325 1186.4982029770626 319.1206772192147L1186.4982029770626 319.1206772192147Q1188.245639988566 322.3709100606103 1189.503794636848 326.6696051089077Q1190.7619492851302 330.9333514169751 1191.5308215701916 338.2376381250577Q1192.2647451150226 345.54192483314034 1192.6491812575532 357.7390351734314Q1193.033617400084 369.93614551372247 1193.033617400084 388.80846523795503L1193.033617400084 388.80846523795503Q1193.033617400084 409.18358079208025 1192.6491812575532 422.1495634174326Q1192.2647451150226 435.115546042785 1191.5308215701916 443.04891007500873Q1190.7619492851302 450.9822741072324 1189.503794636848 455.38581537622Q1188.245639988566 459.78935664520765 1186.4982029770626 463.03958948660323L1186.4982029770626 463.03958948660323Q1185.9739718736118 464.053102953275 1186.6030491977529 465.0666164199468Q1187.2321265218939 466.0801298866185 1188.245639988566 466.0801298866185ZM1280.3355704947749 462.0260760199315L1188.245639988566 462.0260760199315L1189.9930770000688 465.0666164199468Q1191.7754627518018 461.5367936567107 1193.033617400084 456.99345742680276Q1194.291772048366 452.48506993712505 1195.1654905541177 444.41191094398107Q1196.0392090598693 436.3737006910672 1196.5634401633201 423.02328192318413Q1197.052722526541 409.70781189553117 1197.052722526541 388.80846523795503L1197.052722526541 388.80846523795503Q1197.052722526541 369.4468631505016 1196.5634401633201 356.97016288837006Q1196.0392090598693 344.52841136646856 1195.1654905541177 336.9794834767755Q1194.291772048366 329.4305555870825 1193.033617400084 324.8872193571747Q1191.7754627518018 320.37883186749684 1189.9930770000688 317.09365028587115L1189.9930770000688 317.09365028587115L1188.245639988566 320.13419068588644L1236.3001578048988 320.13419068588644L1234.5527207933956 317.09365028587115Q1232.7703350416623 320.37883186749684 1231.5121803933803 324.8872193571747Q1230.2540257450983 329.4305555870825 1229.3803072393466 336.9794834767755Q1228.506588733595 344.52841136646856 1228.0173063703742 356.97016288837006Q1227.4930752669234 369.4468631505016 1227.4930752669234 388.80846523795503L1227.4930752669234 388.80846523795503Q1227.4930752669234 403.4170386541203 1227.7377164485338 413.9715582035985Q1228.0173063703742 424.56102649330677 1228.2619475519846 432.35459556461024L1228.2619475519846 432.35459556461024Q1228.2619475519846 433.368109031282 1228.8910248761258 433.8573913945028Q1229.520102200267 434.3466737577237 1230.2540257450983 434.3466737577237L1230.2540257450983 434.3466737577237Q1248.8817042877204 434.3466737577237 1259.715813759039 433.22831407036176Q1270.5149744901278 432.10995438299983 1276.561106549928 429.69849130712566Q1282.6072386097285 427.32197697148155 1286.6263437361854 424.0367953898559L1286.6263437361854 424.0367953898559L1283.3761108947901 422.28935837835286L1278.3434923016612 463.80846177166455L1280.3355704947749 462.0260760199315ZM1344.5014575571654 405.6887067690742L1302.9823541638539 332.7157371687082L1299.4525314006178 334.70781536182164L1340.9716347939293 407.68078496218766Q1341.4958658973806 408.6942984288594 1342.7540205456626 408.6942984288594Q1344.0121751939446 408.6942984288594 1344.5014575571654 407.68078496218766L1344.5014575571654 407.68078496218766L1385.0070474838053 334.70781536182164L1381.5121734607992 332.7157371687082L1340.9716347939293 405.6887067690742Q1340.4823524307085 406.6672714955159 1342.7540205456626 406.6672714955159Q1345.0256886606162 406.6672714955159 1344.5014575571654 405.6887067690742L1344.5014575571654 405.6887067690742ZM1344.7460987387758 406.6672714955159L1345.0256886606162 376.47155993674374L1340.9716347939293 376.47155993674374L1340.726993612319 406.6672714955159Q1340.726993612319 406.6672714955159 1340.726993612319 406.6672714955159Q1340.726993612319 406.6672714955159 1340.726993612319 406.6672714955159L1340.726993612319 406.6672714955159L1340.726993612319 448.4659648106681L1344.7460987387758 448.4659648106681L1344.7460987387758 406.6672714955159Q1344.7460987387758 406.6672714955159 1344.7460987387758 406.6672714955159Q1344.7460987387758 406.6672714955159 1344.7460987387758 406.6672714955159L1344.7460987387758 406.6672714955159ZM1341.740507078991 450.2134018221711L1365.645445396352 465.800539964778L1367.6724723296952 462.305665941772L1343.7675340123342 446.683579058935Q1343.4879440904938 446.4389378773246 1342.8588667663525 446.4389378773246Q1342.2297894422113 446.4389378773246 1341.740507078991 446.683579058935L1341.740507078991 446.683579058935L1317.8355687616295 462.305665941772L1319.8625956949727 465.800539964778L1343.7675340123342 450.2134018221711Q1344.256816375555 449.72411945895027 1342.7540205456626 449.72411945895027Q1341.2512247157697 449.72411945895027 1341.740507078991 450.2134018221711L1341.740507078991 450.2134018221711ZM1301.9688406971823 331.94686488364687L1269.7810509452966 316.35972674103994L1268.2782551154037 319.8546007640459L1300.4660448672894 335.47668764688297Q1300.9902759707402 335.72132882849337 1301.6193532948814 335.5815338675731Q1302.2484306190222 335.47668764688297 1302.493071800633 335.2320464652725L1302.493071800633 335.2320464652725L1320.8411604214148 319.6099595824355L1318.3248511248503 316.60436792265034L1299.9767625040686 332.1915060652573Q1299.4525314006178 332.4361472468677 1300.9902759707402 332.33130102617747Q1302.493071800633 332.1915060652573 1301.9688406971823 331.94686488364687L1301.9688406971823 331.94686488364687ZM1384.5177651205845 332.1915060652573L1367.6724723296952 316.60436792265034L1365.1561630331312 319.6099595824355L1382.0014558240205 335.2320464652725Q1382.4907381872413 335.47668764688297 1383.119815511382 335.5815338675731Q1383.7488928355233 335.72132882849337 1384.273123938974 335.47668764688297L1384.273123938974 335.47668764688297L1414.2241943161362 319.8546007640459L1412.1971673827925 316.35972674103994L1382.2460970056309 331.94686488364687Q1381.7568146424096 332.1915060652573 1383.3994054332225 332.33130102617747Q1385.0070474838053 332.4361472468677 1384.5177651205845 332.1915060652573L1384.5177651205845 332.1915060652573ZM1342.7540205456626 404.6751933024025L1324.6156243662613 403.6616798357307L1324.6156243662613 407.68078496218766L1342.7540205456626 408.6942984288594Q1342.7540205456626 408.6942984288594 1342.7540205456626 408.6942984288594Q1342.7540205456626 408.6942984288594 1342.7540205456626 408.6942984288594L1342.7540205456626 408.6942984288594L1360.8574679848339 407.68078496218766L1360.8574679848339 403.6616798357307L1342.7540205456626 404.6751933024025Q1342.5093793640522 404.6751933024025 1342.7540205456626 404.6751933024025Q1342.998661727273 404.6751933024025 1342.7540205456626 404.6751933024025L1342.7540205456626 404.6751933024025ZM1413.210680849464 316.0801368191994L1413.210680849464 316.0801368191994L1366.4143176814132 316.0801368191994Q1365.4008042147416 316.0801368191994 1364.7717268906003 316.84900910426074Q1364.1426495664596 317.61788138932206 1364.38729074807 318.5964461157638L1364.38729074807 318.5964461157638Q1365.1561630331312 321.88162769738943 1364.8765731112908 325.7958866031562Q1364.6319319296804 329.6751967686929 1362.3602638147263 335.5815338675731Q1360.1235444400027 341.5228197066833 1355.0909258468737 351.06382578948984Q1350.0583072537452 360.6397806125264 1341.2512247157697 375.492995210302L1341.2512247157697 375.492995210302L1344.7460987387758 375.492995210302Q1335.9390162008008 360.6397806125264 1330.9063976076723 351.06382578948984Q1325.8737790145433 341.5228197066833 1323.6370596398192 335.5815338675731Q1321.3653915248656 329.6751967686929 1321.1207503432552 325.7958866031562Q1320.8411604214148 321.88162769738943 1321.610032706476 318.5964461157638L1321.610032706476 318.5964461157638Q1321.8546738880864 317.61788138932206 1321.2255965639451 316.84900910426074Q1320.5965192398044 316.0801368191994 1319.5830057731323 316.0801368191994L1319.5830057731323 316.0801368191994L1269.012178660235 316.0801368191994Q1267.7540240119529 316.0801368191994 1267.1249466878116 317.23344524679146Q1266.4958693636709 318.3518049341534 1267.5093828303425 319.3653184008251L1267.5093828303425 319.3653184008251Q1270.7945644119682 322.8951411640612 1274.6738745775046 327.92775975718985Q1278.5881334832716 332.9603783503186 1284.6342655430722 342.15189703082444Q1290.6454488626423 351.3084669711003 1299.9767625040686 366.790758893017Q1309.2731274052644 382.27305081493375 1322.868187354758 406.6672714955159L1322.868187354758 406.6672714955159L1322.6235461731476 405.6887067690742Q1322.6235461731476 425.5395912197485 1321.9944688490068 436.75813683359786Q1321.3653915248656 447.94173370721717 1320.2120830972735 453.603429624487Q1319.0937234099115 459.26512554175673 1317.0666964765683 463.03958948660323L1317.0666964765683 463.03958948660323Q1316.5774141133475 464.053102953275 1317.2064914374882 465.0666164199468Q1317.8355687616295 466.0801298866185 1318.849082228301 466.0801298866185L1318.849082228301 466.0801298866185L1366.6589588630236 466.0801298866185Q1367.917113511306 466.0801298866185 1368.4063958745269 465.0666164199468Q1368.9306269779777 464.053102953275 1368.4063958745269 463.03958948660323L1368.4063958745269 463.03958948660323Q1366.6589588630236 459.26512554175673 1365.4008042147416 453.603429624487Q1364.1426495664596 447.94173370721717 1363.6184184630083 436.75813683359786Q1363.1291360997875 425.5395912197485 1362.884494918177 405.6887067690742L1362.884494918177 405.6887067690742L1362.6398537365667 406.6672714955159Q1376.1999649458303 382.02840963332335 1384.9022012631153 366.54611771140657Q1393.5694888401704 351.06382578948984 1398.9865435758297 342.01210206990424Q1404.403598311489 332.9603783503186 1407.9334210747252 327.92775975718985Q1411.4282950977313 322.8951411640612 1414.7134766793565 319.3653184008251L1414.7134766793565 319.3653184008251Q1415.7269901460286 318.3518049341534 1415.0979128218873 317.23344524679146Q1414.468835497746 316.0801368191994 1413.210680849464 316.0801368191994ZM1366.4143176814132 320.13419068588644L1413.210680849464 320.13419068588644L1411.7078850195717 316.84900910426074Q1408.422703437946 320.37883186749684 1404.8928806747099 325.41145046062553Q1401.3630579114738 330.4440690537542 1395.9809519160444 339.4957927733399Q1390.563897180385 348.5475164929255 1381.7568146424096 364.27444959645265Q1372.9497321044346 380.00138269997984 1359.1100309733306 404.6751933024025L1359.1100309733306 404.6751933024025Q1358.8653897917202 404.9198344840129 1358.8653897917202 405.1644756656233Q1358.8653897917202 405.40911684723375 1358.8653897917202 405.6887067690742L1358.8653897917202 405.6887067690742Q1359.1100309733306 426.3084635048098 1359.7391082974718 437.77165030026964Q1360.368185621613 449.19988835549935 1361.731186490585 455.24602041529977Q1363.1291360997875 461.29215247510024 1364.8765731112908 465.0666164199468L1364.8765731112908 465.0666164199468L1366.6589588630236 462.0260760199315L1318.849082228301 462.0260760199315L1320.5965192398044 465.0666164199468Q1322.6235461731476 461.29215247510024 1323.8817008214296 455.24602041529977Q1325.139855469712 449.19988835549935 1325.8737790145433 437.77165030026964Q1326.6426512996045 426.3084635048098 1326.6426512996045 405.6887067690742L1326.6426512996045 405.6887067690742Q1326.6426512996045 405.40911684723375 1326.6426512996045 405.1644756656233Q1326.6426512996045 404.9198344840129 1326.398010117994 404.6751933024025L1326.398010117994 404.6751933024025Q1312.5583089868906 380.00138269997984 1303.2269953454643 364.4142445573729Q1293.930630444268 348.79215767453593 1287.7796521637774 339.63558773426007Q1281.5937251430569 330.4440690537542 1277.71441497752 325.41145046062553Q1273.8001560717535 320.37883186749684 1270.5149744901278 316.84900910426074L1270.5149744901278 316.84900910426074L1269.012178660235 320.13419068588644L1319.5830057731323 320.13419068588644L1317.590927580019 317.61788138932206Q1316.8220552949579 321.1127554123281 1316.9618502558778 325.02701431809487Q1317.0666964765683 328.9412732238617 1319.233518370832 335.09225150435225Q1321.3653915248656 341.2432297848429 1326.6426512996045 351.4482619320205Q1331.9199110743439 361.65329407919813 1341.2512247157697 377.48507340341547L1341.2512247157697 377.48507340341547Q1341.740507078991 378.49858687008725 1342.998661727273 378.49858687008725Q1344.256816375555 378.49858687008725 1344.7460987387758 377.48507340341547L1344.7460987387758 377.48507340341547Q1354.077412380202 361.65329407919813 1359.354672154941 351.58805689294076Q1364.6319319296804 341.5228197066833 1366.763805083714 335.33689268596265Q1368.9306269779777 329.1859144054721 1369.0354731986681 325.1668092790151Q1369.175268159588 321.1127554123281 1368.4063958745269 317.61788138932206L1368.4063958745269 317.61788138932206L1366.4143176814132 320.13419068588644Z " fill="#ff0000" transform="matrix(0.6182265130022273,0,0,0.6182265130022272,0,58.223880848088214)"/></g></svg>